<svg width="501" height="191" viewBox="0 0 501 191" fill="none" xmlns="http://www.w3.org/2000/svg">
<path opacity="0.02" d="M9.8 44.4C20.3333 44.4 29.6 45.9333 37.6 49C45.7333 52.0667 53 56.6667 59.4 62.8L42.8 82.4C33.2 74.8 23.1333 71 12.6 71C7.13334 71 2.93334 72.0667 9.53674e-07 74.2C-2.8 76.2 -4.2 79.0667 -4.2 82.8C-4.2 85.4667 -3.46666 87.6667 -2 89.4C-0.533331 91.1333 1.93334 92.8 5.4 94.4C8.86667 96 14.3333 98 21.8 100.4C36.0667 104.933 46.4667 110.667 53 117.6C59.6667 124.4 63 133.867 63 146C63 154.8 60.7333 162.6 56.2 169.4C51.6667 176.067 45.0667 181.267 36.4 185C27.8667 188.733 17.8 190.6 6.2 190.6C-15.9333 190.6 -34 183.867 -48 170.4L-29.8 150.2C-18.7333 159.267 -7.2 163.8 4.8 163.8C11.0667 163.8 15.9333 162.467 19.4 159.8C22.8667 157 24.6 153.333 24.6 148.8C24.6 145.6 23.9333 143 22.6 141C21.2667 138.867 18.8667 137 15.4 135.4C12.0667 133.667 7.13334 131.8 0.600002 129.8C-15.1333 124.867 -26.2 118.933 -32.6 112C-39 105.067 -42.2 96.3333 -42.2 85.8C-42.2 77.5333 -40 70.2667 -35.6 64C-31.0667 57.7333 -24.8667 52.9333 -17 49.6C-9 46.1333 -0.0666649 44.4 9.8 44.4ZM114.816 48V158.2H168.216L164.216 187H77.8156V48H114.816ZM269.336 48L265.536 74.2H218.136V103.8H259.536V129.2H218.136V160.8H268.736V187H181.136V48H269.336ZM374.023 48L370.223 74.2H322.823V103.8H364.223V129.2H322.823V160.8H373.423V187H285.823V48H374.023ZM438.111 48C456.778 48 471.244 51.9333 481.511 59.8C491.911 67.5333 497.111 78.9333 497.111 94C497.111 109.733 492.111 121.733 482.111 130C472.111 138.133 458.644 142.2 441.711 142.2H427.511V187H390.511V48H438.111ZM438.311 115.8C445.244 115.8 450.444 114.067 453.911 110.6C457.511 107.133 459.311 101.667 459.311 94.2C459.311 80.7333 452.044 74 437.511 74H427.511V115.8H438.311Z" fill="white"/>
<path d="M268.52 25.96C272.733 25.96 276.44 26.5733 279.64 27.8C282.893 29.0267 285.8 30.8667 288.36 33.32L281.72 41.16C277.88 38.12 273.853 36.6 269.64 36.6C267.453 36.6 265.773 37.0267 264.6 37.88C263.48 38.68 262.92 39.8267 262.92 41.32C262.92 42.3867 263.213 43.2667 263.8 43.96C264.387 44.6533 265.373 45.32 266.76 45.96C268.147 46.6 270.333 47.4 273.32 48.36C279.027 50.1733 283.187 52.4667 285.8 55.24C288.467 57.96 289.8 61.7467 289.8 66.6C289.8 70.12 288.893 73.24 287.08 75.96C285.267 78.6267 282.627 80.7067 279.16 82.2C275.747 83.6933 271.72 84.44 267.08 84.44C258.227 84.44 251 81.7467 245.4 76.36L252.68 68.28C257.107 71.9067 261.72 73.72 266.52 73.72C269.027 73.72 270.973 73.1867 272.36 72.12C273.747 71 274.44 69.5333 274.44 67.72C274.44 66.44 274.173 65.4 273.64 64.6C273.107 63.7467 272.147 63 270.76 62.36C269.427 61.6667 267.453 60.92 264.84 60.12C258.547 58.1467 254.12 55.7733 251.56 53C249 50.2267 247.72 46.7333 247.72 42.52C247.72 39.2133 248.6 36.3067 250.36 33.8C252.173 31.2933 254.653 29.3733 257.8 28.04C261 26.6533 264.573 25.96 268.52 25.96ZM310.526 27.4V71.48H331.886L330.286 83H295.726V27.4H310.526ZM372.334 27.4L370.814 37.88H351.854V49.72H368.414V59.88H351.854V72.52H372.094V83H337.054V27.4H372.334ZM414.209 27.4L412.689 37.88H393.729V49.72H410.289V59.88H393.729V72.52H413.969V83H378.929V27.4H414.209ZM439.844 27.4C447.311 27.4 453.098 28.9733 457.204 32.12C461.364 35.2133 463.444 39.7733 463.444 45.8C463.444 52.0933 461.444 56.8933 457.444 60.2C453.444 63.4533 448.058 65.08 441.284 65.08H435.604V83H420.804V27.4H439.844ZM439.924 54.52C442.698 54.52 444.778 53.8267 446.164 52.44C447.604 51.0533 448.324 48.8667 448.324 45.88C448.324 40.4933 445.418 37.8 439.604 37.8H435.604V54.52H439.924Z" fill="white"/>
<rect x="383" y="11" width="80" height="1" fill="#4AF6CD"/>
</svg>
